<svg id="图层_1" data-name="图层 1" xmlns="http://www.w3.org/2000/svg" viewBox="0 0 187.5 150"><defs><style>.cls-1{fill:#465DEF;}</style></defs><title>identity_check</title><path class="cls-1" d="M168.75,87.5h-50a6.25,6.25,0,0,1,0-12.5h50a6.25,6.25,0,0,1,0,12.5Zm0,31.25h-37.5a6.25,6.25,0,0,1,0-12.5h37.5a6.25,6.25,0,0,1,0,12.5ZM25,137.5A37.53,37.53,0,0,1,62.5,100,18.75,18.75,0,1,1,81.25,81.25,18.75,18.75,0,0,1,62.5,100,37.53,37.53,0,0,1,100,137.5ZM181.25,25H18.75A12.5,12.5,0,0,0,6.25,37.5v125A12.5,12.5,0,0,0,18.75,175h162.5a12.5,12.5,0,0,0,12.5-12.5V37.5A12.5,12.5,0,0,0,181.25,25Z" transform="translate(-6.25 -25)"/></svg>